<?xml version="1.0" standalone="no"?>
<!DOCTYPE svg PUBLIC "-//W3C//DTD SVG 20010904//EN"
 "http://www.w3.org/TR/2001/REC-SVG-20010904/DTD/svg10.dtd">
<svg version="1.0" xmlns="http://www.w3.org/2000/svg"
 width="616.000000pt" height="616.000000pt" viewBox="0 0 616.000000 616.000000"
 preserveAspectRatio="xMidYMid meet">
<metadata>
Created by potrace 1.14, written by Peter Selinger 2001-2017
</metadata>
<g transform="translate(0.000000,616.000000) scale(0.100000,-0.100000)"
fill="#000000" stroke="none">
<path d="M2683 4975 c0 -7 6 -11 14 -8 7 3 13 6 13 8 0 2 -6 5 -13 8 -8 3 -14
-1 -14 -8z"/>
<path d="M2905 4984 c-22 -2 -89 -11 -148 -20 -59 -8 -113 -12 -119 -8 -6 4
-8 3 -5 -3 3 -5 -21 -15 -56 -22 -34 -7 -120 -33 -192 -58 -71 -25 -138 -45
-147 -46 -9 -1 -15 -4 -12 -8 5 -8 -55 -25 -71 -20 -5 1 -7 -1 -2 -5 10 -10
-52 -36 -66 -27 -6 3 -7 1 -3 -5 4 -7 -3 -14 -19 -18 -14 -3 -25 -11 -25 -16
0 -6 -9 -8 -20 -5 -11 3 -18 1 -15 -3 6 -10 -29 -32 -39 -25 -3 3 -4 2 -1 -1
2 -4 -26 -25 -63 -47 -37 -22 -105 -70 -152 -106 -47 -35 -90 -64 -97 -64 -7
0 -10 -3 -8 -7 5 -8 -37 -45 -48 -42 -5 1 -6 -1 -3 -6 8 -14 -51 -65 -65 -57
-8 6 -10 4 -5 -4 9 -14 -22 -53 -36 -45 -4 3 -7 2 -6 -3 4 -13 -44 -73 -54
-67 -5 3 -7 2 -6 -3 4 -11 -52 -83 -64 -83 -5 0 -6 5 -2 12 4 7 3 8 -5 4 -8
-5 -9 -12 -3 -19 11 -14 -41 -90 -53 -79 -5 4 -5 2 -2 -4 3 -6 -3 -21 -14 -32
-11 -12 -17 -22 -14 -22 5 0 -19 -46 -69 -130 -11 -19 -21 -38 -21 -41 0 -8
-58 -132 -65 -139 -3 -3 -5 -9 -5 -15 -1 -19 -28 -95 -34 -95 -3 0 -7 -17 -8
-37 -1 -21 -7 -39 -13 -41 -5 -2 -8 -8 -4 -13 3 -5 0 -35 -7 -67 -9 -39 -13
-177 -14 -437 -1 -209 -3 -387 -5 -395 -1 -8 0 -107 4 -220 7 -212 26 -330 68
-428 10 -24 15 -49 11 -54 -3 -7 -1 -8 5 -4 7 4 12 1 12 -7 0 -8 22 -48 49
-90 42 -65 46 -74 28 -70 -14 3 -11 -1 8 -10 26 -13 65 -49 65 -61 0 -2 32
-35 70 -73 39 -39 70 -68 70 -65 0 3 10 -4 23 -15 12 -11 45 -36 73 -54 28
-19 52 -38 53 -44 2 -5 5 -12 8 -15 4 -3 3 1 -2 9 -4 7 -4 12 1 9 5 -2 30 -14
57 -26 26 -13 47 -25 47 -28 0 -3 -5 -2 -10 1 -16 10 -11 -1 7 -16 11 -10 14
-10 9 -1 -10 17 18 15 57 -4 53 -28 176 -54 307 -65 83 -7 469 -9 1150 -5
1044 5 1101 6 1094 17 -6 10 85 31 99 23 7 -4 9 -3 4 1 -4 5 27 21 69 37 42
15 101 41 131 58 29 17 58 28 64 25 5 -4 8 -2 7 3 -2 6 19 26 46 45 98 71 247
230 287 308 11 22 23 37 28 35 5 -3 8 2 8 12 0 9 12 44 27 77 33 70 76 208 76
242 0 13 3 22 8 20 4 -3 7 50 8 116 0 67 1 169 2 227 3 178 -6 873 -11 900 -3
14 -12 56 -20 95 -9 38 -13 73 -11 77 3 4 0 8 -5 8 -13 0 -15 31 -3 45 4 6 3
7 -2 3 -11 -9 -38 61 -29 75 3 6 1 7 -5 3 -11 -6 -15 5 -11 30 0 4 -3 10 -8
13 -4 3 -36 63 -71 133 -35 69 -84 154 -108 187 -24 34 -42 61 -40 61 3 0 -6
11 -20 25 -14 14 -22 30 -18 37 4 6 3 8 -3 5 -13 -8 -85 77 -75 88 4 5 2 5 -4
2 -11 -6 -62 39 -56 50 2 3 -7 11 -20 18 -13 6 -21 18 -20 26 2 8 0 11 -4 7
-3 -4 -39 21 -78 56 -39 35 -93 80 -121 101 -27 21 -49 42 -47 47 1 5 -3 6 -9
2 -6 -3 -14 -2 -18 2 -3 5 -32 25 -63 44 -32 19 -58 38 -58 43 0 4 -4 6 -9 3
-5 -3 -19 2 -32 12 -24 18 -205 103 -247 116 -12 4 -20 12 -17 17 3 5 0 6 -8
3 -7 -2 -27 1 -43 7 -16 7 -32 12 -36 11 -5 -1 -8 2 -8 7 0 5 -10 7 -22 3 -16
-4 -19 -2 -13 8 5 9 4 11 -3 6 -6 -4 -35 0 -64 8 -29 8 -72 20 -96 26 -28 7
-40 15 -36 23 5 9 4 9 -4 2 -8 -8 -43 -5 -114 7 -100 18 -459 32 -553 22z
m445 -239 c144 -17 329 -61 445 -105 121 -47 246 -111 238 -123 -4 -6 -1 -7 6
-2 13 8 63 -13 57 -24 -2 -3 7 -7 20 -7 29 -2 175 -103 190 -133 6 -12 15 -25
19 -29 5 -4 4 0 0 8 -8 13 -7 13 11 1 45 -34 73 -65 67 -74 -3 -6 -1 -7 4 -4
15 9 166 -149 223 -233 14 -19 30 -41 37 -48 7 -7 13 -18 13 -23 0 -13 -49
-109 -55 -109 -11 0 -4 29 9 43 9 9 11 19 5 28 -7 12 -9 11 -9 -2 0 -17 -26
-33 -40 -24 -14 9 -17 -42 -3 -61 12 -16 18 -12 14 9 -1 5 3 6 9 2 7 -4 7 -12
0 -26 -6 -11 -16 -16 -22 -13 -6 4 -8 3 -4 -4 6 -10 -19 -45 -77 -106 -24 -25
-30 -28 -39 -16 -8 12 -9 12 -4 -2 3 -12 -5 -24 -24 -38 -17 -12 -30 -18 -30
-14 0 4 -8 0 -17 -8 -10 -9 -49 -28 -88 -43 -58 -23 -90 -28 -191 -32 -143 -6
-255 12 -350 58 -34 16 -67 29 -72 29 -6 0 -14 5 -18 12 -5 7 -3 8 6 3 8 -5
11 -4 6 3 -4 6 -13 9 -20 6 -7 -3 -20 1 -27 8 -8 7 -39 29 -69 48 -62 40 -154
112 -220 173 -25 23 -62 55 -83 70 -21 16 -34 33 -31 39 5 7 2 8 -5 3 -8 -4
-24 1 -39 12 -15 11 -59 37 -99 58 -40 21 -69 43 -66 48 3 6 1 7 -6 3 -14 -9
-51 2 -51 15 0 5 8 9 18 9 14 0 15 2 2 10 -8 5 -22 9 -30 9 -10 0 -11 -2 -2
-6 6 -2 10 -9 6 -14 -3 -5 -17 -3 -32 5 -27 13 -86 32 -197 61 -33 9 -67 18
-75 22 -25 9 -67 12 -270 19 -149 4 -223 2 -313 -10 -65 -8 -126 -13 -135 -10
-12 4 -13 3 -4 -3 9 -7 -5 -13 -45 -22 -32 -7 -71 -18 -88 -25 -38 -17 -92
-30 -83 -20 4 4 2 14 -5 22 -10 13 -9 14 13 3 23 -11 23 -11 7 3 -19 14 -52
11 -42 -4 3 -4 -2 -10 -10 -14 -8 -3 -15 -11 -14 -18 0 -9 2 -10 5 -1 3 7 12
9 20 6 11 -4 7 -9 -13 -20 -100 -52 -98 -45 12 65 120 119 211 193 323 265
101 65 210 119 225 111 7 -4 9 -4 5 1 -7 8 55 47 69 43 5 0 30 9 57 21 26 13
98 36 160 52 61 16 136 36 166 44 134 36 436 45 650 20z m-815 -746 c245 -33
444 -123 669 -303 317 -254 415 -313 611 -369 102 -29 346 -35 451 -12 200 44
390 166 501 323 25 34 47 62 50 62 2 0 20 -33 38 -73 75 -162 94 -306 54 -411
-64 -172 -276 -331 -502 -377 -95 -19 -133 -19 -1360 -17 l-1262 3 -78 22
c-257 73 -460 274 -474 470 -14 195 150 409 412 541 150 75 355 135 520 152
87 9 259 4 370 -11z"/>
<path d="M2599 4673 c-13 -16 -12 -17 4 -4 16 13 21 21 13 21 -2 0 -10 -8 -17
-17z"/>
<path d="M3558 4683 c7 -3 16 -2 19 1 4 3 -2 6 -13 5 -11 0 -14 -3 -6 -6z"/>
<path d="M3630 4655 c-11 -13 -10 -14 4 -9 9 3 16 10 16 15 0 13 -6 11 -20 -6z"/>
<path d="M3697 4613 c-23 -6 -11 -23 17 -23 13 0 23 6 23 15 0 15 -7 17 -40 8z"/>
<path d="M3787 4609 c7 -7 15 -10 18 -7 3 3 -2 9 -12 12 -14 6 -15 5 -6 -5z"/>
<path d="M2888 4603 c7 -3 16 -2 19 1 4 3 -2 6 -13 5 -11 0 -14 -3 -6 -6z"/>
<path d="M3898 4563 c7 -3 16 -2 19 1 4 3 -2 6 -13 5 -11 0 -14 -3 -6 -6z"/>
<path d="M2410 4518 c-25 -22 -31 -31 -15 -20 52 37 80 62 70 61 -5 0 -30 -18
-55 -41z"/>
<path d="M2794 4526 c-3 -9 -10 -16 -16 -16 -5 0 -16 -6 -23 -14 -12 -12 -12
-15 4 -19 10 -2 25 -1 32 4 12 7 12 9 0 9 -11 0 -10 5 4 20 10 11 15 23 12 26
-4 4 -9 -1 -13 -10z"/>
<path d="M2150 4520 c-9 -6 -10 -10 -3 -10 6 0 15 5 18 10 8 12 4 12 -15 0z"/>
<path d="M3960 4500 c8 -5 22 -9 30 -9 10 0 8 3 -5 9 -27 12 -43 12 -25 0z"/>
<path d="M2326 4474 c-5 -14 -4 -15 9 -4 17 14 19 20 6 20 -5 0 -12 -7 -15
-16z"/>
<path d="M2706 4464 c-8 -22 -7 -34 3 -34 5 0 9 11 9 25 0 29 -3 31 -12 9z"/>
<path d="M2675 4460 c-3 -5 -1 -10 4 -10 6 0 11 5 11 10 0 6 -2 10 -4 10 -3 0
-8 -4 -11 -10z"/>
<path d="M2080 4451 c0 -8 -7 -11 -17 -6 -15 5 -16 4 -5 -6 9 -10 15 -10 24
-1 6 6 9 15 5 19 -4 3 -7 1 -7 -6z"/>
<path d="M2005 4426 c-18 -13 -18 -14 6 -25 19 -9 21 -9 7 1 -15 11 -15 13 0
25 23 17 11 17 -13 -1z"/>
<path d="M4019 4423 c-13 -17 -13 -17 6 -3 11 8 22 16 24 17 2 2 0 3 -6 3 -6
0 -17 -8 -24 -17z"/>
<path d="M2637 4413 c-12 -11 -8 -22 13 -33 14 -7 20 -7 20 0 0 5 -7 10 -15
10 -18 0 -20 16 -2 23 6 3 7 6 1 6 -6 1 -14 -2 -17 -6z"/>
<path d="M2254 4388 l-19 -21 28 18 c28 18 33 25 19 25 -5 0 -17 -10 -28 -22z"/>
<path d="M2745 4400 c-3 -5 1 -10 10 -10 9 0 13 5 10 10 -3 6 -8 10 -10 10 -2
0 -7 -4 -10 -10z"/>
<path d="M2175 4390 c-3 -6 1 -7 9 -4 18 7 21 14 7 14 -6 0 -13 -4 -16 -10z"/>
<path d="M3840 4390 c0 -5 10 -10 23 -10 18 0 19 2 7 10 -19 13 -30 13 -30 0z"/>
<path d="M2190 4370 c-9 -6 -10 -10 -3 -10 6 0 15 5 18 10 8 12 4 12 -15 0z"/>
<path d="M2549 4363 c-13 -16 -12 -17 4 -4 16 13 21 21 13 21 -2 0 -10 -8 -17
-17z"/>
<path d="M3933 4370 c-25 -10 -31 -30 -9 -30 8 0 16 -4 18 -9 2 -4 12 1 23 11
17 16 17 18 2 12 -13 -5 -16 -2 -11 10 7 18 7 18 -23 6z"/>
<path d="M1890 4342 c0 -5 7 -9 15 -9 8 0 12 4 9 9 -3 4 -9 8 -15 8 -5 0 -9
-4 -9 -8z"/>
<path d="M3846 4317 c1 -12 3 -26 3 -31 1 -13 41 25 41 38 0 6 -5 4 -10 -4 -5
-8 -10 -10 -10 -4 0 7 -6 14 -13 17 -9 3 -13 -2 -11 -16z"/>
<path d="M1827 4292 c-15 -16 -15 -18 3 -18 10 0 17 4 14 8 -2 4 4 11 13 17
15 9 16 10 2 11 -9 0 -23 -8 -32 -18z"/>
<path d="M3889 4293 c-13 -16 -12 -17 4 -4 16 13 21 21 13 21 -2 0 -10 -8 -17
-17z"/>
<path d="M4226 4301 c-3 -5 2 -15 12 -22 15 -12 16 -12 5 2 -7 9 -10 19 -6 22
3 4 4 7 0 7 -3 0 -8 -4 -11 -9z"/>
<path d="M4310 4306 c0 -2 7 -7 16 -10 8 -3 12 -2 9 4 -6 10 -25 14 -25 6z"/>
<path d="M4180 4265 c-10 -12 -9 -16 4 -21 9 -4 20 -4 23 0 4 3 -2 6 -13 6
-19 1 -19 1 0 15 11 8 15 15 9 15 -6 0 -16 -7 -23 -15z"/>
<path d="M2797 4259 c7 -7 15 -10 18 -7 3 3 -2 9 -12 12 -14 6 -15 5 -6 -5z"/>
<path d="M3764 4259 c-5 -8 -3 -9 6 -4 10 6 12 4 7 -9 -4 -10 -7 -20 -7 -22 0
-2 -11 -4 -25 -4 -14 0 -25 -4 -25 -10 0 -5 -7 -10 -16 -10 -8 0 -12 -4 -9
-10 3 -5 0 -10 -7 -10 -9 -1 -7 -5 4 -14 16 -12 16 -14 0 -31 -15 -16 -14 -16
9 1 15 10 22 22 17 25 -21 13 54 65 75 53 9 -6 8 -3 -1 8 -9 12 -10 17 -1 20
7 2 6 8 -4 16 -12 10 -17 10 -23 1z"/>
<path d="M2740 4232 c-11 -12 -9 -13 11 -7 32 10 47 24 22 22 -11 0 -25 -7
-33 -15z"/>
<path d="M1754 4229 c-3 -6 -1 -16 6 -22 10 -9 12 -8 6 7 -5 14 -2 17 9 12 9
-3 13 -2 10 4 -8 13 -22 13 -31 -1z"/>
<path d="M2875 4231 c-6 -5 -19 -11 -30 -14 -15 -4 -13 -5 8 -6 15 0 27 3 27
8 0 5 10 12 23 14 20 4 20 4 2 6 -12 0 -25 -3 -30 -8z"/>
<path d="M3628 4233 c7 -3 16 -2 19 1 4 3 -2 6 -13 5 -11 0 -14 -3 -6 -6z"/>
<path d="M3690 4230 c-8 -5 -12 -11 -9 -14 2 -3 11 -1 19 4 8 5 12 11 9 14 -2
3 -11 1 -19 -4z"/>
<path d="M4119 4213 c-13 -14 -19 -23 -12 -20 6 4 13 1 16 -5 3 -9 11 -5 26
11 11 13 21 28 21 33 0 17 -27 7 -51 -19z m31 2 c-7 -8 -17 -15 -22 -15 -6 0
-5 7 2 15 7 8 17 15 22 15 6 0 5 -7 -2 -15z"/>
<path d="M4417 4223 c4 -10 2 -14 -4 -10 -16 10 -4 -30 13 -44 9 -7 14 -8 14
-1 0 6 3 19 6 29 5 15 4 15 -5 3 -5 -8 -13 -11 -17 -7 -4 3 -2 13 5 21 9 11 8
15 -3 19 -11 4 -13 1 -9 -10z"/>
<path d="M2775 4219 c-16 -6 -14 -8 13 -8 33 -1 41 4 20 12 -7 2 -22 1 -33 -4z"/>
<path d="M1858 4213 c7 -3 16 -2 19 1 4 3 -2 6 -13 5 -11 0 -14 -3 -6 -6z"/>
<path d="M2818 4193 c7 -3 16 -2 19 1 4 3 -2 6 -13 5 -11 0 -14 -3 -6 -6z"/>
<path d="M2858 4183 c7 -3 16 -2 19 1 4 3 -2 6 -13 5 -11 0 -14 -3 -6 -6z"/>
<path d="M3540 4176 c0 -8 7 -17 16 -20 12 -5 14 -15 8 -51 -7 -48 2 -57 30
-29 15 14 20 11 17 -9 -1 -5 3 -6 9 -2 6 4 7 12 0 24 -11 21 4 41 31 41 27 0
42 25 24 40 -8 7 -15 8 -15 3 0 -5 -11 -15 -25 -21 -23 -11 -29 -9 -49 13 -26
28 -46 33 -46 11z"/>
<path d="M4069 4173 c-13 -16 -12 -17 4 -4 9 7 17 15 17 17 0 8 -8 3 -21 -13z"/>
<path d="M2894 4173 c3 -4 18 -8 32 -9 14 -2 24 0 20 3 -3 3 -17 7 -32 9 -14
1 -23 0 -20 -3z"/>
<path d="M3600 4171 c0 -6 4 -13 10 -16 6 -3 7 1 4 9 -7 18 -14 21 -14 7z"/>
<path d="M4110 4170 c8 -5 20 -10 25 -10 6 0 3 5 -5 10 -8 5 -19 10 -25 10 -5
0 -3 -5 5 -10z"/>
<path d="M4031 4141 c-7 -5 -12 -14 -10 -20 2 -6 10 -2 17 9 14 22 13 23 -7
11z"/>
<path d="M4105 4120 c-3 -5 1 -10 9 -10 9 0 16 5 16 10 0 6 -4 10 -9 10 -6 0
-13 -4 -16 -10z"/>
<path d="M4520 4115 c7 -9 10 -19 6 -22 -4 -4 -11 -2 -15 5 -6 10 -10 10 -19
0 -8 -11 -3 -13 28 -13 l39 0 -21 22 c-24 26 -37 31 -18 8z"/>
<path d="M3043 4105 c0 -8 4 -12 9 -9 4 3 8 9 8 15 0 5 -4 9 -8 9 -5 0 -9 -7
-9 -15z"/>
<path d="M3522 4095 c3 -41 -2 -55 -21 -55 -10 0 -24 -7 -31 -15 -14 -17 -35
-21 -25 -4 4 6 -2 5 -14 -3 -22 -13 -28 -42 -11 -53 5 -3 22 8 37 25 21 22 32
28 43 21 12 -8 11 -14 -10 -37 l-25 -28 31 25 c17 13 30 31 28 41 -1 9 6 18
17 21 23 6 26 27 3 27 -8 0 -12 4 -9 10 3 5 1 18 -4 27 -10 17 -11 16 -9 -2z
m-7 -75 c3 -6 -1 -7 -9 -4 -18 7 -21 14 -7 14 6 0 13 -4 16 -10z"/>
<path d="M3967 4096 c-10 -8 -14 -16 -10 -19 5 -3 14 3 21 14 14 22 13 23 -11
5z"/>
<path d="M3467 4094 c-14 -14 -7 -25 13 -22 12 2 21 8 21 13 0 12 -24 18 -34
9z"/>
<path d="M4058 4083 c7 -3 16 -2 19 1 4 3 -2 6 -13 5 -11 0 -14 -3 -6 -6z"/>
<path d="M3362 4068 c5 -15 57 -18 61 -3 1 6 -13 11 -32 13 -24 3 -32 0 -29
-10z"/>
<path d="M3970 4050 c8 -5 16 -14 16 -20 3 -23 5 -24 13 -11 10 15 -12 40 -34
41 -5 0 -3 -5 5 -10z"/>
<path d="M3342 4033 c-11 -11 -10 -14 3 -19 21 -9 37 8 21 22 -8 8 -15 7 -24
-3z"/>
<path d="M3556 4022 l-19 -27 24 22 c12 12 21 24 18 27 -2 2 -13 -8 -23 -22z"/>
<path d="M3195 4030 c-3 -5 -1 -10 4 -10 6 0 11 5 11 10 0 6 -2 10 -4 10 -3 0
-8 -4 -11 -10z"/>
<path d="M3881 4026 c-9 -11 -9 -16 1 -22 7 -4 10 -4 6 1 -4 4 -3 14 3 22 6 7
9 13 6 13 -2 0 -10 -6 -16 -14z"/>
<path d="M3903 4005 c0 -8 4 -12 9 -9 4 3 8 9 8 15 0 5 -4 9 -8 9 -5 0 -9 -7
-9 -15z"/>
<path d="M3936 4001 c-3 -5 1 -11 9 -15 8 -3 15 -1 15 4 0 13 -18 22 -24 11z"/>
<path d="M3817 3975 c-15 -14 -24 -25 -19 -25 5 0 19 11 32 25 30 32 23 32
-13 0z"/>
<path d="M3455 3980 c-3 -5 -1 -10 4 -10 6 0 11 5 11 10 0 6 -2 10 -4 10 -3 0
-8 -4 -11 -10z"/>
<path d="M3864 3976 c-3 -9 -10 -14 -14 -11 -4 3 -13 -2 -20 -10 -9 -10 -9
-15 -1 -15 6 0 11 5 11 11 0 5 4 8 9 5 11 -7 36 22 28 31 -4 3 -9 -2 -13 -11z"/>
<path d="M3795 3931 c-3 -5 -2 -12 3 -15 5 -3 9 1 9 9 0 17 -3 19 -12 6z"/>
<path d="M3340 3916 c7 -7 13 -7 20 0 6 6 3 10 -10 10 -13 0 -16 -4 -10 -10z"/>
<path d="M4560 3921 c0 -5 5 -13 10 -16 6 -3 10 -2 10 4 0 5 -4 13 -10 16 -5
3 -10 2 -10 -4z"/>
<path d="M3726 3901 c-11 -12 -14 -21 -7 -26 15 -9 14 -28 -1 -19 -10 5 -10 4
-2 -5 15 -16 44 -3 44 20 0 10 -4 19 -10 19 -5 0 -10 5 -10 11 0 6 7 8 16 5 8
-3 12 -2 9 4 -9 15 -20 12 -39 -9z m19 -21 c3 -5 2 -10 -4 -10 -5 0 -13 5 -16
10 -3 6 -2 10 4 10 5 0 13 -4 16 -10z"/>
<path d="M3676 3861 c-17 -18 -17 -20 2 -30 14 -7 19 -7 19 4 0 8 -7 11 -16 7
-13 -4 -12 -1 3 16 11 12 17 22 14 22 -3 0 -13 -9 -22 -19z"/>
<path d="M4537 3794 c5 -12 3 -15 -6 -9 -10 6 -11 3 -1 -14 14 -28 35 -22 35
10 0 15 -7 25 -17 27 -13 3 -16 -1 -11 -14z"/>
<path d="M4493 3775 c0 -8 4 -12 9 -9 5 3 6 10 3 15 -9 13 -12 11 -12 -6z"/>
<path d="M4513 3753 c-7 -3 -13 -9 -13 -15 0 -6 8 -5 18 3 15 13 16 12 4 -3
-8 -9 -20 -14 -28 -11 -10 4 -12 0 -8 -11 8 -21 17 -20 39 4 19 21 11 42 -12
33z"/>
<path d="M4377 3687 c29 -50 36 -56 51 -48 20 11 26 45 7 37 -8 -3 -17 -1 -20
3 -8 14 -46 21 -38 8z m63 -31 c0 -2 -7 -7 -16 -10 -8 -3 -12 -2 -9 4 6 10 25
14 25 6z"/>
<path d="M3760 3680 c0 -5 7 -10 16 -10 8 0 12 5 9 10 -3 6 -10 10 -16 10 -5
0 -9 -4 -9 -10z"/>
<path d="M3678 3663 c7 -3 16 -2 19 1 4 3 -2 6 -13 5 -11 0 -14 -3 -6 -6z"/>
<path d="M3731 3633 c-1 -17 16 -25 25 -12 4 7 3 9 -4 5 -5 -3 -13 0 -15 6 -4
9 -6 10 -6 1z"/>
<path d="M4350 3615 c-8 -9 -8 -15 -2 -15 12 0 26 19 19 26 -2 2 -10 -2 -17
-11z"/>
<path d="M3770 3611 c0 -6 4 -12 8 -15 5 -3 9 1 9 9 0 8 -4 15 -9 15 -4 0 -8
-4 -8 -9z"/>
<path d="M3997 3599 c7 -7 15 -10 18 -7 3 3 -2 9 -12 12 -14 6 -15 5 -6 -5z"/>
<path d="M4231 3591 c-9 -6 -7 -10 8 -14 12 -3 21 -1 21 3 0 14 -15 19 -29 11z"/>
<path d="M4270 3591 c0 -5 7 -11 14 -14 10 -4 13 -1 9 9 -6 15 -23 19 -23 5z"/>
<path d="M3818 3583 c7 -3 16 -2 19 1 4 3 -2 6 -13 5 -11 0 -14 -3 -6 -6z"/>
<path d="M3878 3583 c7 -3 16 -2 19 1 4 3 -2 6 -13 5 -11 0 -14 -3 -6 -6z"/>
<path d="M3890 3570 c-15 -5 -18 -8 -8 -9 9 -1 25 -4 35 -7 14 -5 15 -4 4 4
-11 8 -7 11 20 15 31 3 31 4 4 4 -16 1 -41 -3 -55 -7z"/>
<path d="M4017 3573 c18 -2 50 -2 70 0 21 2 7 4 -32 4 -38 0 -55 -2 -38 -4z"/>
<path d="M4183 3563 c9 -2 23 -2 30 0 6 3 -1 5 -18 5 -16 0 -22 -2 -12 -5z"/>
<path d="M3968 3553 c6 -2 18 -2 25 0 6 3 1 5 -13 5 -14 0 -19 -2 -12 -5z"/>
<path d="M4049 3546 c18 -5 48 -5 73 0 40 9 38 10 -31 9 -60 0 -68 -2 -42 -9z"/>
<path d="M2190 3745 c-8 -9 -8 -15 -2 -15 12 0 26 19 19 26 -2 2 -10 -2 -17
-11z"/>
<path d="M2846 3644 c-9 -8 -16 -17 -16 -19 0 -9 44 13 48 23 5 17 -14 15 -32
-4z"/>
<path d="M2145 3606 c2 -22 12 -47 22 -55 15 -15 16 -15 5 0 -6 8 -16 33 -22
55 l-10 39 5 -39z"/>
<path d="M2786 3623 c-6 -14 -5 -15 5 -6 7 7 10 15 7 18 -3 3 -9 -2 -12 -12z"/>
<path d="M2882 3618 c5 -15 28 -23 28 -10 0 5 -7 13 -16 16 -10 4 -14 1 -12
-6z"/>
<path d="M2974 3615 c-4 -9 -4 -19 0 -22 3 -4 6 0 6 8 0 11 2 11 10 -1 8 -13
10 -13 10 2 0 23 -19 33 -26 13z"/>
<path d="M2347 3606 c-3 -8 1 -20 9 -26 11 -10 14 -10 14 0 0 7 7 10 16 6 9
-3 12 -2 9 5 -4 5 -16 7 -28 3 -19 -6 -20 -5 -8 10 7 9 9 16 3 16 -5 0 -12 -6
-15 -14z"/>
<path d="M2250 3600 c0 -5 5 -10 10 -10 6 0 10 5 10 10 0 6 -4 10 -10 10 -5 0
-10 -4 -10 -10z"/>
<path d="M2984 3568 c-12 -16 -11 -38 2 -60 8 -14 10 -8 10 27 1 49 1 51 -12
33z"/>
<path d="M2369 3553 c-13 -16 -12 -17 4 -4 9 7 17 15 17 17 0 8 -8 3 -21 -13z"/>
<path d="M2205 3550 c3 -5 11 -10 16 -10 6 0 7 5 4 10 -3 6 -11 10 -16 10 -6
0 -7 -4 -4 -10z"/>
<path d="M2341 3534 c0 -11 3 -14 6 -6 3 7 2 16 -1 19 -3 4 -6 -2 -5 -13z"/>
<path d="M2770 3535 c0 -5 5 -17 10 -25 5 -8 10 -10 10 -5 0 6 -5 17 -10 25
-5 8 -10 11 -10 5z"/>
<path d="M1555 3510 c-3 -6 1 -7 9 -4 18 7 21 14 7 14 -6 0 -13 -4 -16 -10z"/>
<path d="M2253 3503 c9 -2 23 -2 30 0 6 3 -1 5 -18 5 -16 0 -22 -2 -12 -5z"/>
<path d="M2810 3465 c13 -14 26 -25 28 -25 3 0 -5 11 -18 25 -13 14 -26 25
-28 25 -3 0 5 -11 18 -25z"/>
<path d="M1509 3463 c-13 -16 -12 -17 4 -4 9 7 17 15 17 17 0 8 -8 3 -21 -13z"/>
<path d="M1610 3461 c0 -6 5 -13 10 -16 6 -3 10 1 10 9 0 9 -4 16 -10 16 -5 0
-10 -4 -10 -9z"/>
<path d="M1702 3430 c-17 -27 -15 -35 4 -16 8 9 14 21 12 26 -2 6 -9 1 -16
-10z"/>
<path d="M2898 3423 c7 -3 16 -2 19 1 4 3 -2 6 -13 5 -11 0 -14 -3 -6 -6z"/>
<path d="M1720 3395 c0 -8 -7 -18 -15 -21 -8 -4 -15 -10 -15 -14 0 -5 11 -3
25 3 26 12 32 31 15 42 -5 3 -10 -1 -10 -10z"/>
<path d="M1492 3375 c0 -16 2 -22 5 -12 2 9 2 23 0 30 -3 6 -5 -1 -5 -18z"/>
<path d="M1697 3297 c-3 -8 1 -14 8 -14 7 0 11 6 8 14 -3 7 -6 13 -8 13 -2 0
-5 -6 -8 -13z"/>
<path d="M1590 3270 c-9 -6 -10 -10 -3 -10 6 0 15 5 18 10 8 12 4 12 -15 0z"/>
<path d="M4065 4819 c-4 -6 -5 -12 -2 -15 2 -3 7 2 10 11 7 17 1 20 -8 4z"/>
<path d="M4765 4259 c-4 -6 -5 -12 -2 -15 2 -3 7 2 10 11 7 17 1 20 -8 4z"/>
<path d="M4995 3920 c-3 -5 -1 -10 4 -10 6 0 11 5 11 10 0 6 -2 10 -4 10 -3 0
-8 -4 -11 -10z"/>
<path d="M1046 2013 c-6 -14 -5 -15 5 -6 7 7 10 15 7 18 -3 3 -9 -2 -12 -12z"/>
<path d="M4917 1674 c-11 -11 3 -24 18 -18 8 4 12 10 9 15 -6 11 -18 12 -27 3z"/>
<path d="M1298 1593 c6 -2 9 -10 6 -15 -4 -7 -2 -8 5 -4 13 9 5 26 -12 25 -9
0 -8 -2 1 -6z"/>
<path d="M1630 1335 c0 -2 6 -8 13 -14 10 -8 14 -7 14 2 0 8 -6 14 -14 14 -7
0 -13 -1 -13 -2z"/>
</g>
</svg>
